<svg id="Capa_1" enable-background="new 0 0 511.999 511.999" height="512" viewBox="0 0 511.999 511.999" width="512" xmlns="http://www.w3.org/2000/svg"><g><path d="m409.506 234.675h44.993v29.996h-44.993z" fill="#9dcced" transform="matrix(.707 -.707 .707 .707 -50.02 378.583)"/><path d="m441.32 287.704h44.995v29.996h-44.995z" fill="#9dcced" transform="matrix(.707 -.707 .707 .707 -78.202 416.591)"/><path d="m239.828 64.985h44.995v29.996h-44.995z" fill="#c9e8f7" transform="matrix(.707 -.707 .707 .707 20.268 208.901)"/><path d="m186.803 33.169h44.995v29.996h-44.995z" fill="#c9e8f7" transform="matrix(.707 -.707 .707 .707 27.239 162.097)"/><path d="m194.053 511.999-56.228-101.219 26.22-14.569c53.003-58.421 31.912-35.173 36.181-39.879l28.938-7.892 17.353 63.632c6.273 23.002-.303 47.763-17.159 64.621z" fill="#73b8e8"/><path d="m101.232 374.183-101.213-56.232 35.304-35.308c16.856-16.857 41.615-23.433 64.615-17.162l63.629 17.356-7.892 28.94c-2.884 2.616 19.649-17.831-39.876 36.183z" fill="#9dcced"/><path d="m447.91 424.666-149.13-149.142 21.21-21.211c5.75-5.419-26.59 25.052 50.809-47.872l26.221-14.568 73.965 133.148c16.101 28.983 10.972 65.597-12.47 89.039z" fill="#73b8e8"/><path d="m236.476 213.216-149.13-149.141 10.603-10.605c23.442-23.444 60.054-28.573 89.034-12.472l133.138 73.972-14.567 26.222c-5.419 5.752 25.04-26.582-47.869 50.813z" fill="#9dcced"/><path d="m128.513 420.857c-12.538 0-19.159-.473-28.023-9.338-17.48-17.48-18.361-45.696-2.005-64.233l.07-.078 276.194-308.631c11.687-13.233 26.557-23.622 43.003-30.042 8.025-2.663 17.331-8.536 33.316-8.535 17.238 0 32.257 6.952 43.073 17.839 16.189 16.295 17.797 36.998 8.503 60.807-2.85 5.722-8.774 31.546-34.398 54.183l-308.694 276.29c-8.577 7.57-19.601 11.738-31.039 11.738z" fill="#c9e8f7"/><path d="m164.719 413.526 308.693-276.29c25.628-22.642 31.55-48.465 34.398-54.183 8.79-22.52 3.425-48.118-13.668-65.215l-393.652 393.682c8.863 8.865 20.649 13.746 33.187 13.746 11.438 0 22.462-4.169 31.042-11.74z" fill="#9dcced"/></g></svg>