<svg id="Capa_1" enable-background="new 0 0 480.916 480.916" height="512" viewBox="0 0 480.916 480.916" width="512" xmlns="http://www.w3.org/2000/svg"><g><g fill="#5f99d7"><path d="m437.672 84.419-38.389-38.389 50.62-39.185c7.649-5.921 18.507-5.233 25.347 1.607 6.84 6.84 7.528 17.698 1.607 25.347z"/><path d="m104.172 356.019-46.335 46.335-34.187-34.187c-7.929-7.929-3.714-21.524 7.318-23.529 22.711-4.129 55.442-6.07 73.204 11.381z"/><path d="m127.282 379.097-46.335 46.335 34.187 34.187c7.929 7.929 21.524 3.714 23.529-7.318 4.129-22.71 6.071-55.442-11.381-73.204z"/></g><path d="m96.719 76.907-12.782-12.782c-4.24-4.24-4.24-11.115 0-15.355l45.588-45.588c4.24-4.24 11.115-4.24 15.355 0l12.782 12.782c4.24 4.24 4.24 11.115 0 15.355l-45.588 45.588c-4.24 4.241-11.114 4.241-15.355 0z" fill="#baafb9"/><path d="m209.946 104.606-12.782-12.782c-4.24-4.24-4.24-11.115 0-15.355l45.588-45.588c4.24-4.24 11.115-4.24 15.355 0l12.782 12.782c4.24 4.24 4.24 11.115 0 15.355l-45.588 45.588c-4.24 4.241-11.115 4.241-15.355 0z" fill="#baafb9"/><path d="m362.967 92.296-133.64 133.64-57.22-38.2-164.98-110.16c-8.21-5.48-9.52-16.95-2.92-24.14.15-.17.31-.34.48-.51l32.09-32.09c6.28-6.28 15.41-8.77 24.01-6.55l59.75 15.42 15.8 4.08 96.2 24.84 15.69 4.05 38.54 9.95z" fill="#b3ceec"/><path d="m362.964 92.292-133.639 133.64-57.214-38.193 55.503-65.462 59.157-49.647z" fill="#98bce5"/><path d="m404.01 384.198 12.782 12.782c4.24 4.24 11.115 4.24 15.355 0l45.588-45.588c4.24-4.24 4.24-11.115 0-15.355l-12.782-12.782c-4.24-4.24-11.115-4.24-15.355 0l-45.588 45.588c-4.24 4.24-4.24 11.115 0 15.355z" fill="#baafb9"/><path d="m376.311 270.972 12.782 12.782c4.24 4.24 11.115 4.24 15.355 0l45.588-45.588c4.24-4.24 4.24-11.115 0-15.355l-12.782-12.782c-4.24-4.24-11.115-4.24-15.355 0l-45.588 45.588c-4.24 4.24-4.24 11.114 0 15.355z" fill="#baafb9"/><path d="m460.077 444.126-21.4 21.4-10.69 10.69c-.01.01-.02.02-.03.02-7.15 7.13-19.02 5.95-24.62-2.45l-107.82-161.48-40.53-60.71 133.64-133.64 20.95 81.16 8.67 33.58 4.05 15.68 24.83 96.2 4.08 15.82 15.42 59.73c2.22 8.59-.27 17.73-6.55 24z" fill="#b3ceec"/><path d="m361.607 256.269-66.089 56.033-40.531-60.707 133.64-133.64 20.948 81.157z" fill="#98bce5"/><path d="m333.422 236.92-219.785 182.049c-13.92 11.542-34.33 10.586-47.117-2.201-3.414-3.414-5.984-7.382-7.695-11.631-4.715-11.639-2.94-25.366 5.574-35.566l183.013-219.399c4.386-5.269 9.205-10.153 14.402-14.611l115.374-98.924c15.976-13.711 38.362-15.486 55.968-5.751 3.968 2.185 7.687 4.956 11.044 8.313 9.076 9.076 13.912 20.884 14.41 32.868s-3.374 24.145-11.671 33.936l-98.177 115.752c-4.658 5.494-9.798 10.57-15.34 15.165z" fill="#b3ceec"/><path d="m314.08 217.578-219.776 182.057c-10.201 8.45-23.88 10.193-35.478 5.502-4.715-11.639-2.94-25.366 5.574-35.566l183.013-219.399c4.386-5.269 9.205-10.153 14.402-14.611l115.374-98.924c15.976-13.711 38.362-15.486 55.968-5.751 3.759 6.779 5.791 14.273 6.112 21.839.498 11.984-3.374 24.145-11.671 33.936l-98.177 115.752c-4.658 5.495-9.791 10.579-15.341 15.165z" fill="#d3e1f5"/><g><path d="m50.923 440.565c-1.919 0-3.839-.732-5.303-2.197-2.929-2.929-2.929-7.678 0-10.606l58.898-58.898c2.929-2.929 7.678-2.929 10.606 0 2.929 2.929 2.929 7.678 0 10.606l-58.898 58.898c-1.464 1.465-3.383 2.197-5.303 2.197z" fill="#fd4755"/></g><g><path d="m248.227 62.676c-.32 1.25-.97 2.44-1.95 3.42l-20.14 20.15c-2.358 2.16-6.706 3.388-10.61 0-2.93-2.93-2.93-7.68 0-10.61l17.01-17.01z" fill="#5f99d7"/></g><g><path d="m136.337 33.786c-.34 1.18-.97 2.3-1.91 3.23l-20.14 20.15c-2.339 2.157-6.714 3.391-10.6 0-2.93-2.93-2.93-7.68 0-10.61l16.85-16.85z" fill="#5f99d7"/></g><g><path d="m422.297 248.376-17.01 17.01c-2.347 2.165-6.72 3.41-10.61 0-2.93-2.93-2.93-7.67 0-10.6l20.14-20.14c.98-.99 2.17-1.64 3.43-1.95z" fill="#5f99d7"/></g><g><path d="m451.207 360.396-16.84 16.84c-2.349 2.159-6.719 3.408-10.61 0-2.93-2.93-2.93-7.68 0-10.61l20.14-20.14c.93-.94 2.05-1.57 3.23-1.91z" fill="#5f99d7"/></g><g><path d="m409.714 114.37c-.482 0-.972-.047-1.463-.144-4.063-.803-6.706-4.749-5.902-8.813l1.522-7.699c.995-5.032-.507-10.004-4.12-13.643s-8.573-5.176-13.612-4.214l-7.899 1.506c-4.061.773-7.996-1.893-8.772-5.962s1.894-7.996 5.962-8.772l7.899-1.506c9.87-1.882 19.986 1.25 27.065 8.378 7.08 7.128 10.143 17.268 8.192 27.124l-1.522 7.699c-.706 3.572-3.841 6.046-7.35 6.046z" fill="#eaf6ff"/></g><g><path d="m226.657 175.066c-.26-.22-.54-.43-.84-.61l-211.02-131.64-10.59 10.62c.49.6 1.09 1.13 1.79 1.57l211.01 131.63z" fill="#98bce5"/></g><g><path d="m438.677 465.526-10.69 10.69c-.01.01-.02.02-.03.02-.44-.42-.83-.9-1.17-1.44l-98.15-156.33c-2.2-3.51-1.14-8.14 2.36-10.34 3.51-2.2 8.14-1.14 10.34 2.36z" fill="#98bce5"/></g></g></svg>